<svg width="40" height="40" viewBox="0 0 397 311" fill="none" xmlns="http://www.w3.org/2000/svg">
  <path d="M64.6 237.9c2.4 2.4 5.7 3.7 9.2 3.7h314.8c5.8 0 8.7-7 4.6-11.1l-64.6-64.6c-2.4-2.4-5.7-3.7-9.2-3.7H4.6c-5.8 0-8.7 7-4.6 11.1l64.6 64.6zm332.4-162c-2.4-2.4-5.7-3.7-9.2-3.7H73c-5.8 0-8.7 7-4.6 11.1l64.6 64.6c2.4 2.4 5.7 3.7 9.2 3.7h314.8c5.8 0 8.7-7 4.6-11.1l-64.6-64.6zM73 0c-3.5 0-6.8 1.3-9.2 3.7L-.8 68.3c-4.1 4.1-1.2 11.1 4.6 11.1h314.8c3.5 0 6.8-1.3 9.2-3.7l64.6-64.6c4.1-4.1 1.2-11.1-4.6-11.1H73z" fill="url(#paint0_linear)"/>
  <defs>
    <linearGradient id="paint0_linear" x1="0" y1="155.5" x2="397" y2="155.5" gradientUnits="userSpaceOnUse">
      <stop stop-color="#9945FF"/>
      <stop offset="1" stop-color="#14F195"/>
    </linearGradient>
  </defs>
</svg>
