<svg width="32" height="32" viewBox="0 0 32 32" fill="none" xmlns="http://www.w3.org/2000/svg">
    <path d="M16 32C24.8366 32 32 24.8366 32 16C32 7.16344 24.8366 0 16 0C7.16344 0 0 7.16344 0 16C0 24.8366 7.16344 32 16 32Z" fill="#FEB94C"/>
    <path d="M17.2909 15.3229L15.769 15.0182C14.704 14.8058 13.7184 14.448 13.7184 13.2826C13.7184 12.1171 14.6605 11.5046 16.2381 11.5046C16.6381 11.5046 16.9997 11.5482 17.3133 11.6352C18.2195 11.8854 18.7667 12.4941 18.9427 13.4458H21.1974C21.1014 12.6778 20.8557 12.0115 20.4659 11.4637C19.9923 10.7968 19.3075 10.2995 18.432 9.98528C18.0954 9.86496 17.7325 9.77216 17.3536 9.71008L17.2192 9.68832V7.56288H15.2941V9.63712L15.1539 9.6544C12.7763 9.952 11.2986 11.4291 11.2986 13.5104C11.2986 15.0131 11.9539 16.0442 13.3011 16.6624C13.7178 16.8531 14.2086 17.0074 14.7616 17.1206L14.8602 17.1398L16.953 17.5392C18.1754 17.7568 18.7955 18.2835 18.7955 19.1046C18.7955 20.1133 17.9187 20.6918 16.3898 20.6918C15.7434 20.6918 15.1635 20.5862 14.6682 20.3782C13.8029 20.0173 13.2358 19.3542 13.0598 18.5037H10.7994C10.8749 19.2454 11.1027 19.913 11.4778 20.4915C11.8752 21.1072 12.4282 21.6058 13.1213 21.9731C13.7158 22.2886 14.4 22.4992 15.1552 22.599L15.2941 22.6176V24.672H17.2192V22.6202L17.3555 22.5997C18.5062 22.4256 19.4637 21.9834 20.1248 21.3197C20.7885 20.6541 21.1392 19.7766 21.1392 18.7814C21.1392 16.905 19.9885 15.8707 17.2909 15.3229ZM29.2147 11.5309H23.017C23.2403 12.1158 23.385 12.7475 23.4464 13.4138L23.4496 13.4458H29.7158C29.5955 12.7987 29.4272 12.1562 29.2147 11.5309ZM8.55168 18.5037H2.27584C2.39296 19.1501 2.55808 19.7933 2.768 20.4186H8.95488C8.73472 19.8163 8.59904 19.1731 8.55168 18.5037ZM29.9309 15.3018H28.329C28.3411 15.5232 28.3475 15.7491 28.3475 15.975C28.3475 16.7027 28.2822 17.4406 28.1523 18.1683C27.5738 21.4144 25.7651 24.2406 23.0598 26.1261C20.3558 28.0115 17.079 28.7315 13.8317 28.1523C10.5862 27.5731 7.76064 25.7651 5.87392 23.0605C5.69472 22.8032 5.52512 22.5395 5.36896 22.2746H3.54496C3.84064 22.8602 4.1824 23.431 4.56128 23.975C6.69184 27.0304 9.8848 29.0739 13.5507 29.728C14.3712 29.8739 15.2051 29.9482 16.0301 29.9482C18.873 29.9482 21.6198 29.0803 23.975 27.4387C25.4957 26.3789 26.7667 25.0605 27.7523 23.52C28.7373 21.9814 29.4016 20.2752 29.7274 18.4493C29.9136 17.4054 29.9821 16.3475 29.9309 15.3018ZM27.4387 8.0256C25.3082 4.9696 22.1158 2.92672 18.4493 2.27264C14.7827 1.61856 11.081 2.43136 8.02496 4.56192C4.97024 6.6912 2.92736 9.88352 2.27264 13.5514C2.0896 14.5786 2.02048 15.6192 2.06656 16.6477H3.66848C3.62112 15.712 3.68128 14.7654 3.84768 13.8323C4.42688 10.5856 6.23552 7.76 8.94016 5.87456C11.024 4.42112 13.456 3.65312 15.9744 3.65312C16.7066 3.65312 17.4445 3.7184 18.1683 3.84832C21.4144 4.42752 24.2406 6.23552 26.1261 8.94016C26.2931 9.17888 26.4525 9.42528 26.6016 9.67488H28.4294C28.1402 9.10848 27.8074 8.55488 27.4387 8.0256Z" fill="black"/>
    <path d="M17.2909 15.3229L15.769 15.0182C14.704 14.8058 13.7184 14.448 13.7184 13.2826C13.7184 12.1171 14.6605 11.5046 16.2381 11.5046C16.6381 11.5046 16.9997 11.5482 17.3133 11.6352C18.2195 11.8854 18.7667 12.4941 18.9427 13.4458H21.1974C21.1014 12.6778 20.8557 12.0115 20.4659 11.4637C19.9923 10.7968 19.3075 10.2995 18.432 9.98528C18.0954 9.86496 17.7325 9.77216 17.3536 9.71008L17.2192 9.68832V7.56288H15.2941V9.63712L15.1539 9.6544C12.7763 9.952 11.2986 11.4291 11.2986 13.5104C11.2986 15.0131 11.9539 16.0442 13.3011 16.6624C13.7178 16.8531 14.2086 17.0074 14.7616 17.1206L14.8602 17.1398L16.953 17.5392C18.1754 17.7568 18.7955 18.2835 18.7955 19.1046C18.7955 20.1133 17.9187 20.6918 16.3898 20.6918C15.7434 20.6918 15.1635 20.5862 14.6682 20.3782C13.8029 20.0173 13.2358 19.3542 13.0598 18.5037H10.7994C10.8749 19.2454 11.1027 19.913 11.4778 20.4915C11.8752 21.1072 12.4282 21.6058 13.1213 21.9731C13.7158 22.2886 14.4 22.4992 15.1552 22.599L15.2941 22.6176V24.672H17.2192V22.6202L17.3555 22.5997C18.5062 22.4256 19.4637 21.9834 20.1248 21.3197C20.7885 20.6541 21.1392 19.7766 21.1392 18.7814C21.1392 16.905 19.9885 15.8707 17.2909 15.3229ZM29.2147 11.5309H23.017C23.2403 12.1158 23.385 12.7475 23.4464 13.4138L23.4496 13.4458H29.7158C29.5955 12.7987 29.4272 12.1562 29.2147 11.5309ZM8.55168 18.5037H2.27584C2.39296 19.1501 2.55808 19.7933 2.768 20.4186H8.95488C8.73472 19.8163 8.59904 19.1731 8.55168 18.5037ZM29.9309 15.3018H28.329C28.3411 15.5232 28.3475 15.7491 28.3475 15.975C28.3475 16.7027 28.2822 17.4406 28.1523 18.1683C27.5738 21.4144 25.7651 24.2406 23.0598 26.1261C20.3558 28.0115 17.079 28.7315 13.8317 28.1523C10.5862 27.5731 7.76064 25.7651 5.87392 23.0605C5.69472 22.8032 5.52512 22.5395 5.36896 22.2746H3.54496C3.84064 22.8602 4.1824 23.431 4.56128 23.975C6.69184 27.0304 9.8848 29.0739 13.5507 29.728C14.3712 29.8739 15.2051 29.9482 16.0301 29.9482C18.873 29.9482 21.6198 29.0803 23.975 27.4387C25.4957 26.3789 26.7667 25.0605 27.7523 23.52C28.7373 21.9814 29.4016 20.2752 29.7274 18.4493C29.9136 17.4054 29.9821 16.3475 29.9309 15.3018ZM27.4387 8.0256C25.3082 4.9696 22.1158 2.92672 18.4493 2.27264C14.7827 1.61856 11.081 2.43136 8.02496 4.56192C4.97024 6.6912 2.92736 9.88352 2.27264 13.5514C2.0896 14.5786 2.02048 15.6192 2.06656 16.6477H3.66848C3.62112 15.712 3.68128 14.7654 3.84768 13.8323C4.42688 10.5856 6.23552 7.76 8.94016 5.87456C11.024 4.42112 13.456 3.65312 15.9744 3.65312C16.7066 3.65312 17.4445 3.7184 18.1683 3.84832C21.4144 4.42752 24.2406 6.23552 26.1261 8.94016C26.2931 9.17888 26.4525 9.42528 26.6016 9.67488H28.4294C28.1402 9.10848 27.8074 8.55488 27.4387 8.0256Z" fill="black"/>
</svg>
